<?xml version="1.0" encoding="utf-8"?>
<!-- Generator: Adobe Illustrator 19.2.1, SVG Export Plug-In . SVG Version: 6.00 Build 0)  -->
<svg version="1.1" id="Layer_1" xmlns="http://www.w3.org/2000/svg" xmlns:xlink="http://www.w3.org/1999/xlink" x="0px" y="0px"
	 viewBox="0 0 656.5 120" style="enable-background:new 0 0 656.5 120;" xml:space="preserve">
<style type="text/css">
	.st0{fill:#2E6187;}
</style>
<g>
	<path class="st0" d="M367.6,106.3c-2.8,5.1-9.2,6.8-12.7,6c-3.9-1-5.9-3.1-5.9-12V40.6h16.9c0.1,0,0.2-0.1,0.2-0.2v-2.9
		c0-0.1-0.1-0.2-0.2-0.2h-16.9V0.2c0-0.1-0.1-0.2-0.2-0.2c-0.1,0-0.2,0.1-0.2,0.2c-1.7,17.1-21.4,39.4-41.1,40
		c-0.1,0-0.2,0.1-0.2,0.2c0,0.1,0.1,0.2,0.2,0.2c0,0,0,0,0,0l6.1-0.1h9.9v56.3c0,11.3,2.5,22.8,21.1,22.8c10.2,0,19-5,23.4-13.2
		c0.1-0.1,0-0.2-0.1-0.3C367.7,106.1,367.6,106.2,367.6,106.3z"/>
	<path class="st0" d="M410.9,35c-11.4,0-21.1,3.9-29.6,11.9c-9,8.6-13.8,19.2-13.8,30.6c0,11.2,4.4,21.8,12.5,29.7
		c8.2,8.1,19.1,12.5,31,12.5c11.6,0,21.3-3.9,29.6-11.9c9.1-8.7,13.8-19,13.8-30.4c0-11.4-4.8-22-13.8-30.6
		C432.1,38.9,422.4,35,410.9,35z M427,87.9c0,19.7-2.3,29-16.1,29c-13.8,0-16.1-9.3-16.1-29V66.8c0-19.7,2.3-28.8,16.1-28.8
		c13.8,0,16.1,9.1,16.1,28.8V87.9z"/>
	<path class="st0" d="M290.9,62.6c7.4,0,13.4-6,13.4-13.3c0-7.4-6-13.3-13.4-13.3s-13.4,6-13.4,13.3
		C277.4,56.6,283.5,62.6,290.9,62.6z"/>
	<path class="st0" d="M643.1,93.4c-7.4,0-13.4,6-13.4,13.3c0,7.4,6,13.3,13.4,13.3s13.4-6,13.4-13.3
		C656.5,99.4,650.5,93.4,643.1,93.4z"/>
	<path class="st0" d="M199.1,35c-11.7,0-21.8,3.9-29.2,11.4c-7.4,7.5-11.3,17.9-11.3,30.1c0,13.1,4.2,24.1,12.1,31.8
		c7.7,7.5,18.3,11.4,30.7,11.4c0,0,0.1,0,0.1,0h0c19.2,0,26.6-14.1,26.6-15.1c0-0.1-0.1-0.2-0.2-0.2c-0.1,0-0.2,0-0.2,0.1
		c-4.5,7-12,10.6-22.2,10.6h-0.1c0,0,0,0-0.1,0c-13.6,0-19.3-8.4-19.3-28.1V75.2h48.9c0.1,0,0.2-0.1,0.2-0.2
		c0-12.7-3.7-23.1-10.7-30.1C218,38.4,209.3,35,199.1,35z M186,71.9V59c0-14,1.6-20.7,11-20.7c7.9,0,11.4,2.7,11.4,19v14.6H186z"/>
	<path class="st0" d="M282,67.7c-8.2-1.9-16.7-3.8-23.5-8.4c-6.7-4.5-7-12.9-3.8-18.8c0-0.1,0-0.2-0.1-0.3c-0.1-0.1-0.2-0.1-0.3,0
		c-7.2,5.5-11.3,13.9-11.3,22.9c0,6.1,2.2,11.7,6.5,16.2c4.8,5.1,11.9,8.6,21.2,10.4c1.4,0.3,2.7,0.5,3.9,0.8
		c14.6,2.9,21.9,4.3,22.4,12c0.2,2.9-0.9,6-3.2,8.4c-3.5,3.7-8.8,5.8-15,5.8c-13.4,0-24.4-9.2-33.2-27.6c0-0.1-0.1-0.1-0.2-0.1
		c-0.1,0-0.2,0.1-0.2,0.2v30c0,0.1,0.1,0.2,0.2,0.2c0.1,0,0.2,0,0.2-0.1c1.9-2.7,4.7-4,8.7-4c0.3,0,0.6,0,0.9,0
		c2.5,0.1,5.4,0.9,8.5,1.8c4.2,1.2,9,2.5,14.1,2.5c10.7,0,19.9-3.4,25.8-9.6c4.8-5.1,7.1-11.7,6.7-19.2
		C309.4,73.9,296.1,70.9,282,67.7z"/>
	<path class="st0" d="M626,104.4c-0.1,0-0.2,0-0.2,0.1c-4.5,7-12,10.6-22.2,10.6h-0.1c0,0,0,0-0.1,0c-13.6,0-19.3-8.4-19.3-28.1
		V75.2h48.9c0,0,0,0,0,0c0.1,0,0.2-0.1,0.2-0.2c0,0,0,0,0-0.1c0-12.7-3.7-23.1-10.7-30.1c-6.4-6.4-15.1-9.8-25.3-9.8
		c-11.7,0-21.8,3.9-29.2,11.4c-7.4,7.5-11.4,17.9-11.4,30.1c0,13.1,4.2,24.1,12.1,31.8c7.7,7.5,18.3,11.4,30.7,11.4c0,0,0.1,0,0.1,0
		h0c19.2,0,26.6-14.1,26.6-15.1C626.1,104.5,626.1,104.4,626,104.4z M584,71.9V59c0-14,1.6-20.7,11-20.7c7.9,0,11.4,2.7,11.4,19
		v14.6H584z"/>
	<path class="st0" d="M76.9,91.9c-0.1,0-0.2,0.1-0.3,0.2c-4.1,16.5-18.5,24-30.2,24c-15.9,0-19-11.4-19-31.2V67.6
		c0-19,2.9-30,17.7-30c6,0,10.2,2,11.3,4.1c0.4,0.7,0.4,1.3,0,1.9c-0.4,0.6-1,1.2-1.7,1.8l-0.2,0.2c-3.2,2.5-5,6.3-5,10.3
		c0,7.4,6,13.3,13.4,13.3s13.4-6,13.4-13.3c0-1.4-0.2-2.7-0.6-4C73.4,41.6,61.1,35,44.7,35c-10.3,0-20.6,3.8-28.9,10.7
		C5.3,54.7,0,65.6,0,78.1c0,11.3,4.4,21.8,12.3,29.5c8.1,7.8,19.2,12.2,31.3,12.2c17.4,0,31.2-11.3,33.5-27.6
		C77.1,92.1,77,91.9,76.9,91.9z"/>
	<path class="st0" d="M556.5,117c0,0-2.7-0.3-5.3-1.7c-3.5-1.9-5.3-4.7-5.3-8.4c0-0.1,0-47.9,0-47.9c0-15-9.9-24-26.5-24
		c-12.3,0-22.4,5.9-29.3,17.1V35.2c0-0.1,0-0.1-0.1-0.2c0,0-0.1-0.1-0.2,0c-12.4,2.1-26.8,2.3-32.5,2.3c-1.5,0-2.3,0-2.3,0
		c0,0,0,0,0,0c-0.1,0-0.2,0.1-0.2,0.2c0,0.1,0.1,0.2,0.2,0.2c0.1,0,10.7,1.8,10.7,8.3l0,60.6c0,3.7-1.8,6.5-5.3,8.5
		c-2.6,1.5-5.3,1.9-5.4,1.9c-0.1,0-0.2,0.1-0.2,0.2c0,0.1,0.1,0.2,0.2,0.2h46.8c0,0,0,0,0,0c0.1,0,0.2-0.1,0.2-0.2
		c0-0.1-0.1-0.2-0.2-0.2c-0.2,0-2.8-0.4-5.3-1.7c-3.5-1.9-5.3-4.7-5.3-8.4c0-0.1,0-45.4,0-45.4c0-13.4,12.7-20.1,19.8-20.1
		c6,0,9.3,2.2,9.3,13.7l0,51.6c0,3.7-1.8,6.5-5.3,8.5c-2.6,1.5-5.3,1.9-5.4,1.9c-0.1,0-0.2,0.1-0.2,0.2c0,0.1,0.1,0.2,0.2,0.2h46.8
		c0.1,0,0.2-0.1,0.2-0.2C556.7,117.1,556.6,117,556.5,117z"/>
	<path class="st0" d="M141.1,35.1c-0.3,0-0.5,0-0.8,0c-8.9,0.3-16.3,5.8-20.8,15.5l0-15.3c0-0.1,0-0.1-0.1-0.2c0,0-0.1-0.1-0.2,0
		c0,0,0,0,0,0c-13.2,2.1-27.8,2.3-33.4,2.3c-1.5,0-2.3,0-2.3,0c0,0,0,0,0,0c-0.1,0-0.2,0.1-0.2,0.2c0,0.1,0.1,0.2,0.2,0.2
		c0.1,0,10.7,2,10.7,9.3l0,59.6c0,3.7-1.8,6.5-5.3,8.5c-2.6,1.5-5.3,1.9-5.4,1.9c-0.1,0-0.2,0.1-0.2,0.2c0,0.1,0.1,0.2,0.2,0.2h46.8
		c0,0,0,0,0,0c0.1,0,0.2-0.1,0.2-0.2c0-0.1-0.1-0.2-0.2-0.2c-0.2,0-2.8-0.5-5.3-1.9c-3.5-2-5.3-4.8-5.3-8.5c0-0.1,0-45.6,0-45.6
		c0-12.9,7.9-19,13.3-20c-1.9,2.4-2.9,5.3-2.9,8.3c0,7.4,6,13.3,13.4,13.3s13.4-6,13.4-13.3C157,41,150.3,35.1,141.1,35.1z"/>
</g>
</svg>
